Gangster Squad.(2013)Caca.Aos.Gangsteres.BDRip.XviD.Dual.Audio-3LT0N 




Sean Penn ... Mickey Cohen
Holt McCallany ... Karl Lennox
Wade Williams ... Rourke
James Hébert ... Mitch Racine
Ambyr Childers ... Milk Skinned Blonde
Josh Brolin ... Sgt. John O'Mara
Mick Betancourt ... Detective Sgt. Will Hendricks
Mac Brandt ... Bruiser
Brandon Molale ... Jimmy 'Bockscar' Knox
Michael Papajohn ... Mike 'The Flea'
Jeff Wolfe ... Giovanni Vacarezza
Anthony Molinari ... Lorenzo Molinari



Format                                   : AVI
Format/Info                              : Audio Video Interleave
Format profile                           : OpenDML
File size                                : 795 MiB
Duration                                 : 1h 52mn
Overall bit rate mode                    : Variable
Overall bit rate                         : 984 Kbps
Writing application                      : AVI-Mux GUI 1.16.11, Dec 15 2004  14:51:34

Video
ID                                       : 0
Format                                   : MPEG-4 Visual
Format profile                           : Advanced Simple@L5
Format settings, BVOP                    : 2
Format settings, QPel                    : No
Format settings, GMC                     : No warppoints
Format settings, Matrix                  : Default (H.263)
Codec ID                                 : XVID
Codec ID/Hint                            : XviD
Duration                                 : 1h 52mn
Bit rate                                 : 729 Kbps
Width                                    : 640 pixels
Height                                   : 272 pixels
Display aspect ratio                     : 2.35:1
Frame rate                               : 23.976 fps
Color space                              : YUV
Chroma subsampling                       : 4:2:0
Bit depth                                : 8 bits
Scan type                                : Progressive
Compression mode                         : Lossy
Bits/(Pixel*Frame)                       : 0.175
Stream size                              : 589 MiB (74%)
Writing library                          : XviD 1.2.1 (UTC 2008-12-04)

Audio #1
ID                                       : 1
Format                                   : MPEG Audio
Format version                           : Version 1
Format profile                           : Layer 3
Mode                                     : Joint stereo
Mode extension                           : MS Stereo
Codec ID                                 : 55
Codec ID/Hint                            : MP3
Duration                                 : 1h 52mn
Bit rate mode                            : Variable
Bit rate                                 : 120 Kbps
Channel(s)                               : 2 channels
Sampling rate                            : 48.0 KHz
Compression mode                         : Lossy
Stream size                              : 95.9 MiB (12%)
Alignment                                : Aligned on interleaves
Interleave, duration                     : 24 ms (0.58 video frame)
Interleave, preload duration             : 184 ms
Title                                    : Portuguese BR - 3LT0N
Writing library                          : LAME3.93a
Encoding settings                        : -m j -V 4 -q 2 -lowpass 17.6 --abr 120

Audio #2
ID                                       : 2
Format                                   : MPEG Audio
Format version                           : Version 1
Format profile                           : Layer 3
Mode                                     : Joint stereo
Mode extension                           : MS Stereo
Codec ID                                 : 55
Codec ID/Hint                            : MP3
Duration                                 : 1h 52mn
Bit rate mode                            : Constant
Bit rate                                 : 128 Kbps
Channel(s)                               : 2 channels
Sampling rate                            : 48.0 KHz
Compression mode                         : Lossy
Stream size                              : 103 MiB (13%)
Alignment                                : Split accross interleaves
Interleave, duration                     : 831 ms (19.92 video frames)
Interleave, preload duration             : 200 ms
Title                                    : English - 3LT0N
Writing library                          : LAME3.99r
Encoding settings                        : -m j -V 4 -q 2 -lowpass 17 -b 128

